# xmcd CD database file
#
# Track frame offsets:
#	150
#	12960
#	35512
#	48820
#	68237
#	82997
#	101662
#	113950
#	131492
#	152482
#	163277
#	197262
#	215130
#	229500
#	241662
#	257085
#	269895
#	284032
#	302240
#
# Disc length: 4247 seconds
#
# Revision: 4
# Processed by: cddbd v1.5.2PL0 Copyright (c) Steve Scherf et al.
# Submitted via: CDex 1.51
#
DISCID=0d109513
DTITLE=Muddy Waters - Can't Get No Grindin' - "Unk" In Funk
DYEAR=1900
DGENRE=Blues
TTITLE0=Can't Get No Grindin' (What's The Matter With The Meal)
TTITLE1=Mother's Bad Luck Child
TTITLE2=Funky Butt
TTITLE3=Sad Letter
TTITLE4=Someday I'm Gonna Ketch You
TTITLE5=Love Weapon
TTITLE6=Garbage Man
TTITLE7=After Hours
TTITLE8=Whiskey No Good
TTITLE9=Muddy Waters' Shuffle
TTITLE10=Rollin' And Tumblin'
TTITLE11=Just To Be With You
TTITLE12=Electric Man
TTITLE13=Trouble No More
TTITLE14="Unk" In Funk
TTITLE15=Drive My Blues Away
TTITLE16=Katie
TTITLE17=Waterboy Waterboy
TTITLE18=Everything Is Gonna Be Alright
EXTD=
EXTT0=
EXTT1=
EXTT2=
EXTT3=
EXTT4=
EXTT5=
EXTT6=
EXTT7=
EXTT8=
EXTT9=
EXTT10=
EXTT11=
EXTT12=
EXTT13=
EXTT14=
EXTT15=
EXTT16=
EXTT17=
EXTT18=
PLAYORDER=
